# Blender v2.79 (sub 0) OBJ File: 'Button.blend'
# www.blender.org
mtllib Button.mtl
o Plane
v -0.000008 -0.123514 -0.000000
v 0.496876 -0.123514 -0.000000
v -0.000008 0.123514 0.000000
v 0.496876 0.123514 0.000000
vn 0.0000 -0.0000 1.0000
usemtl Material.001
s off
f 1//1 2//1 4//1 3//1
o Bracket_Cube
v 0.000000 -0.125000 0.005013
v 0.000000 0.125000 0.005013
v 0.000000 -0.125000 -0.005013
v 0.000000 0.125000 -0.005013
v 0.110276 -0.125000 0.005013
v 0.110276 0.125000 0.005013
v 0.110276 -0.125000 -0.005013
v 0.110276 0.125000 -0.005013
v 0.000000 0.100000 0.005013
v 0.000000 0.100000 -0.005013
v 0.110276 0.100000 -0.005013
v 0.110276 0.100000 0.005013
v 0.000000 -0.100478 -0.005013
v 0.110276 -0.100478 -0.005013
v 0.110276 -0.100478 0.005013
v 0.000000 -0.100478 0.005013
v 0.024928 -0.125000 -0.005013
v 0.024928 0.125000 -0.005013
v 0.024928 -0.125000 0.005013
v 0.024928 0.125000 0.005013
v 0.024928 0.100000 0.005013
v 0.024928 0.100000 -0.005013
v 0.024928 -0.100478 -0.005013
v 0.024928 -0.100478 0.005013
vn -1.0000 0.0000 0.0000
vn 0.0000 0.0000 -1.0000
vn 1.0000 0.0000 0.0000
vn 0.0000 0.0000 1.0000
vn 0.0000 -1.0000 0.0000
vn 0.0000 1.0000 0.0000
usemtl Material
s off
f 13//2 6//2 8//2 14//2
f 26//3 22//3 12//3 15//3
f 15//4 12//4 10//4 16//4
f 25//5 24//5 6//5 13//5
f 21//6 11//6 9//6 23//6
f 22//7 8//7 6//7 24//7
f 28//5 25//5 13//5 20//5
f 20//2 13//2 14//2 17//2
f 5//2 20//2 17//2 7//2
f 21//3 27//3 18//3 11//3
f 11//4 18//4 19//4 9//4
f 23//5 28//5 20//5 5//5
f 9//5 19//5 28//5 23//5
f 7//3 17//3 27//3 21//3
f 17//3 14//3 26//3 27//3
f 12//7 22//7 24//7 10//7
f 7//6 21//6 23//6 5//6
f 16//5 10//5 24//5 25//5
f 14//3 8//3 22//3 26//3
f 16//6 25//6 26//6 15//6
f 27//4 26//4 25//4 28//4
f 27//7 28//7 19//7 18//7
