# Blender v2.79 (sub 0) OBJ File: 'Checkbox.blend'
# www.blender.org
mtllib Checkbox.mtl
o Check
v -0.018913 -0.002106 0.000607
v -0.014623 0.002184 0.000607
v -0.018913 -0.002106 -0.000607
v -0.014623 0.002184 -0.000607
v -0.010333 -0.010686 0.000607
v -0.006042 -0.006396 0.000607
v -0.010333 -0.010686 -0.000607
v -0.006042 -0.006396 -0.000607
v -0.006042 -0.014976 0.000607
v -0.001752 -0.010686 0.000607
v -0.006042 -0.014976 -0.000607
v -0.001752 -0.010686 -0.000607
v 0.015408 0.015054 0.000607
v 0.015408 0.015054 -0.000607
v 0.019698 0.010764 0.000607
v 0.019698 0.010764 -0.000607
vn -0.7071 0.7071 0.0000
vn -0.0000 0.0000 -1.0000
vn 0.0000 0.0000 1.0000
vn -0.7071 -0.7071 0.0000
vn 0.7071 0.7071 0.0000
vn 0.7071 -0.7071 0.0000
usemtl Check
s off
f 1//1 2//1 4//1 3//1
f 3//2 4//2 8//2 7//2
f 6//3 5//3 9//3 10//3
f 5//3 6//3 2//3 1//3
f 3//4 7//4 5//4 1//4
f 8//5 4//5 2//5 6//5
f 11//6 12//6 10//6 9//6
f 5//4 7//4 11//4 9//4
f 10//6 12//6 16//6 15//6
f 7//2 8//2 12//2 11//2
f 14//5 13//5 15//5 16//5
f 8//1 6//1 13//1 14//1
f 12//2 8//2 14//2 16//2
f 6//3 10//3 15//3 13//3
o Box
v 0.022500 0.022500 0.000000
v -0.022500 0.022500 0.000000
v 0.022500 -0.022500 0.000000
v -0.022500 -0.022500 0.000000
v 0.025000 -0.025000 -0.001562
v 0.025000 -0.025000 0.001563
v -0.025000 -0.025000 0.001563
v -0.025000 -0.025000 -0.001562
v 0.025000 0.025000 -0.001562
v 0.025000 0.025000 0.001563
v -0.025000 0.025000 0.001563
v -0.025000 0.025000 -0.001562
vn 0.0000 -1.0000 0.0000
vn 0.0000 1.0000 0.0000
vn 1.0000 0.0000 0.0000
vn -0.2858 -0.2858 0.9147
vn -1.0000 -0.0000 -0.0000
vn 0.0000 -0.5300 -0.8480
vn 0.2858 0.2858 0.9147
vn -0.0000 0.2040 -0.9790
usemtl Border
s off
f 21//7 22//7 23//7 24//7
f 25//8 28//8 27//8 26//8
f 21//9 25//9 26//9 22//9
f 22//10 26//10 27//10 18//10 17//10 19//10
f 23//11 27//11 28//11 24//11
f 25//12 17//12 18//12 28//12
f 18//13 27//13 23//13 22//13 19//13 20//13
f 28//14 18//14 20//14 19//14 17//14 25//14 21//14 24//14
