# Blender v2.80 (sub 27) OBJ File: 'switch-component.blend'
# www.blender.org
mtllib switch-component.mtl
o Frame
v 0.000359 -0.100274 0.019644
v 0.000359 -0.000274 0.019644
v 0.000359 -0.100274 0.009644
v 0.000359 -0.000274 0.009644
v 0.200359 -0.100274 0.019644
v 0.200359 -0.000274 0.019644
v 0.200359 -0.100274 0.009644
v 0.200359 -0.000274 0.009644
v 0.005359 -0.095274 0.019144
v 0.005359 -0.005274 0.019144
v 0.005359 -0.095274 0.010144
v 0.005359 -0.005274 0.010144
v 0.195359 -0.095274 0.019144
v 0.195359 -0.005274 0.019144
v 0.195359 -0.095274 0.010144
v 0.195359 -0.005274 0.010144
vt 0.375000 0.250000
vt 0.625000 0.000000
vt 0.375000 0.000000
vt 0.375000 0.750000
vt 0.625000 0.750000
vt 0.375000 0.750000
vt 0.625000 0.500000
vt 0.375000 0.500000
vt 0.875000 0.500000
vt 0.625000 0.000000
vt 0.375000 0.250000
vt 0.375000 0.000000
vt 0.875000 0.750000
vt 0.875000 0.750000
vt 0.625000 0.500000
vt 0.375000 0.500000
vt 0.125000 0.750000
vt 0.125000 0.500000
vt 0.875000 0.500000
vt 0.625000 0.750000
vt 0.625000 0.250000
vt 0.625000 0.250000
vn 1.0000 0.0000 0.0000
vn 0.0995 0.0000 -0.9950
vn -1.0000 0.0000 0.0000
vn 0.0000 -0.0995 -0.9950
vn 0.0000 1.0000 0.0000
vn 0.0000 -1.0000 0.0000
vn -0.0995 0.0000 -0.9950
vn 0.0000 0.0995 -0.9950
vn 0.0000 0.0995 0.9950
vn 0.0995 0.0000 0.9950
vn 0.0000 -0.0995 0.9950
vn -0.0995 0.0000 0.9950
usemtl Orange
s off
f 3/1/1 2/2/1 1/3/1
f 13/4/2 6/5/2 5/6/2
f 5/6/3 8/7/3 7/8/3
f 1/3/4 13/4/4 5/6/4
f 1/3/5 7/8/5 3/1/5
f 6/5/6 4/9/6 8/7/6
f 10/10/3 11/11/3 9/12/3
f 10/13/7 1/3/7 2/14/7
f 16/15/1 13/4/1 15/16/1
f 6/5/8 10/13/8 2/14/8
f 15/16/6 9/17/6 11/18/6
f 12/19/5 14/20/5 16/15/5
f 4/9/9 16/15/9 8/7/9
f 8/7/10 15/16/10 7/8/10
f 7/8/11 11/18/11 3/1/11
f 11/18/12 4/9/12 3/1/12
f 3/1/1 4/21/1 2/2/1
f 13/4/2 14/20/2 6/5/2
f 5/6/3 6/5/3 8/7/3
f 1/3/4 9/17/4 13/4/4
f 1/3/5 5/6/5 7/8/5
f 6/5/6 2/14/6 4/9/6
f 10/10/3 12/22/3 11/11/3
f 10/13/7 9/12/7 1/3/7
f 16/15/1 14/20/1 13/4/1
f 6/5/8 14/20/8 10/13/8
f 15/16/6 13/4/6 9/17/6
f 12/19/5 10/13/5 14/20/5
f 4/9/9 12/19/9 16/15/9
f 8/7/10 16/15/10 15/16/10
f 7/8/11 15/16/11 11/18/11
f 11/18/12 12/22/12 4/9/12
o OffFrame
v 0.102926 -0.090542 0.019026
v 0.102926 -0.008930 0.019026
v 0.102926 -0.090542 0.010263
v 0.102926 -0.008930 0.010263
v 0.191033 -0.090542 0.019026
v 0.191033 -0.008930 0.019026
v 0.191033 -0.090542 0.010263
v 0.191033 -0.008930 0.010263
v 0.109045 -0.084557 0.018428
v 0.109045 -0.014915 0.018428
v 0.109045 -0.084557 0.010861
v 0.109045 -0.014915 0.010861
v 0.184914 -0.084557 0.018428
v 0.184914 -0.014915 0.018428
v 0.184914 -0.084557 0.010861
v 0.184914 -0.014915 0.010861
vt 0.375000 0.250000
vt 0.625000 0.000000
vt 0.375000 0.000000
vt 0.375000 0.750000
vt 0.625000 0.750000
vt 0.625000 0.750000
vt 0.625000 0.500000
vt 0.375000 0.500000
vt 0.125000 0.750000
vt 0.375000 0.750000
vt 0.875000 0.500000
vt 0.625000 0.000000
vt 0.375000 0.250000
vt 0.375000 0.000000
vt 0.875000 0.750000
vt 0.625000 0.500000
vt 0.375000 0.500000
vt 0.875000 0.750000
vt 0.125000 0.500000
vt 0.875000 0.500000
vt 0.625000 0.250000
vt 0.000000 0.000000
vt 0.000000 0.000000
vt 0.000000 0.000000
vt 0.625000 0.250000
vt 0.000000 0.000000
vn 1.0000 0.0000 0.0000
vn 0.0973 0.0000 -0.9953
vn -1.0000 0.0000 0.0000
vn 0.0000 -0.0995 -0.9950
vn 0.0000 1.0000 0.0000
vn 0.0000 -1.0000 0.0000
vn -0.0973 0.0000 -0.9953
vn 0.0000 0.0995 -0.9950
vn 0.0000 0.0995 0.9950
vn 0.0973 0.0000 0.9953
vn 0.0000 -0.0995 0.9950
vn -0.0973 0.0000 0.9953
vn 0.0000 0.0000 1.0000
usemtl Pink
s off
f 19/23/13 18/24/13 17/25/13
f 21/26/14 30/27/14 22/28/14
f 21/26/15 24/29/15 23/30/15
f 21/26/16 25/31/16 29/32/16
f 17/25/17 23/30/17 19/23/17
f 22/28/18 20/33/18 24/29/18
f 26/34/15 27/35/15 25/36/15
f 18/37/19 25/36/19 17/25/19
f 32/38/13 29/32/13 31/39/13
f 22/28/20 26/40/20 18/37/20
f 31/39/18 25/31/18 27/41/18
f 28/42/17 30/27/17 32/38/17
f 20/33/21 32/38/21 24/29/21
f 24/29/22 31/39/22 23/30/22
f 23/30/23 27/41/23 19/23/23
f 19/23/24 28/43/24 20/33/24
f 28/44/25 31/45/25 32/46/25
f 19/23/13 20/47/13 18/24/13
f 21/26/14 29/32/14 30/27/14
f 21/26/15 22/28/15 24/29/15
f 21/26/16 17/25/16 25/31/16
f 17/25/17 21/26/17 23/30/17
f 22/28/18 18/37/18 20/33/18
f 26/34/15 28/43/15 27/35/15
f 18/37/19 26/40/19 25/36/19
f 32/38/13 30/27/13 29/32/13
f 22/28/20 30/27/20 26/40/20
f 31/39/18 29/32/18 25/31/18
f 28/42/17 26/40/17 30/27/17
f 20/33/21 28/42/21 32/38/21
f 24/29/22 32/38/22 31/39/22
f 23/30/23 31/39/23 27/41/23
f 19/23/24 27/41/24 28/43/24
f 28/44/25 27/48/25 31/45/25
o OnFrame
v 0.009427 -0.090030 0.019026
v 0.009427 -0.009269 0.019026
v 0.009427 -0.090030 0.010263
v 0.009427 -0.009269 0.010263
v 0.097024 -0.090030 0.019026
v 0.097024 -0.009269 0.019026
v 0.097024 -0.090030 0.010263
v 0.097024 -0.009269 0.010263
v 0.015546 -0.084045 0.018428
v 0.015546 -0.015254 0.018428
v 0.015546 -0.084045 0.010861
v 0.015546 -0.015254 0.010861
v 0.090905 -0.084045 0.018428
v 0.090905 -0.015254 0.018428
v 0.090905 -0.084045 0.010861
v 0.090905 -0.015254 0.010861
vt 0.375000 0.250000
vt 0.625000 0.000000
vt 0.375000 0.000000
vt 0.375000 0.750000
vt 0.625000 0.750000
vt 0.375000 0.750000
vt 0.625000 0.500000
vt 0.375000 0.500000
vt 0.125000 0.750000
vt 0.875000 0.500000
vt 0.625000 0.000000
vt 0.375000 0.250000
vt 0.375000 0.000000
vt 0.875000 0.750000
vt 0.875000 0.750000
vt 0.625000 0.500000
vt 0.375000 0.500000
vt 0.125000 0.500000
vt 0.875000 0.500000
vt 0.625000 0.750000
vt 0.000000 0.000000
vt 0.000000 0.000000
vt 0.000000 0.000000
vt 0.625000 0.250000
vt 0.625000 0.250000
vt 0.000000 0.000000
vn 1.0000 0.0000 0.0000
vn 0.0973 0.0000 -0.9953
vn -1.0000 0.0000 0.0000
vn 0.0000 -0.0995 -0.9950
vn 0.0000 1.0000 0.0000
vn 0.0000 -1.0000 0.0000
vn -0.0973 0.0000 -0.9953
vn 0.0000 0.0995 -0.9950
vn 0.0000 0.0995 0.9950
vn 0.0973 0.0000 0.9953
vn 0.0000 -0.0995 0.9950
vn -0.0973 0.0000 0.9953
vn 0.0000 0.0000 1.0000
usemtl Pink
s off
f 35/49/26 34/50/26 33/51/26
f 45/52/27 38/53/27 37/54/27
f 37/54/28 40/55/28 39/56/28
f 37/54/29 41/57/29 45/52/29
f 33/51/30 39/56/30 35/49/30
f 38/53/31 36/58/31 40/55/31
f 42/59/28 43/60/28 41/61/28
f 42/62/32 33/51/32 34/63/32
f 48/64/26 45/52/26 47/65/26
f 38/53/33 42/62/33 34/63/33
f 47/65/31 41/57/31 43/66/31
f 44/67/30 46/68/30 48/64/30
f 40/55/34 44/67/34 48/64/34
f 40/55/35 47/65/35 39/56/35
f 39/56/36 43/66/36 35/49/36
f 43/66/37 36/58/37 35/49/37
f 44/69/38 47/70/38 48/71/38
f 35/49/26 36/72/26 34/50/26
f 45/52/27 46/68/27 38/53/27
f 37/54/28 38/53/28 40/55/28
f 37/54/29 33/51/29 41/57/29
f 33/51/30 37/54/30 39/56/30
f 38/53/31 34/63/31 36/58/31
f 42/59/28 44/73/28 43/60/28
f 42/62/32 41/61/32 33/51/32
f 48/64/26 46/68/26 45/52/26
f 38/53/33 46/68/33 42/62/33
f 47/65/31 45/52/31 41/57/31
f 44/67/30 42/62/30 46/68/30
f 40/55/34 36/58/34 44/67/34
f 40/55/35 48/64/35 47/65/35
f 39/56/36 47/65/36 43/66/36
f 43/66/37 44/73/37 36/58/37
f 44/69/38 43/74/38 47/70/38
o One
v 0.045527 -0.080327 0.025839
v 0.045527 -0.019535 0.025839
v 0.045527 -0.080327 0.015839
v 0.045527 -0.019535 0.015839
v 0.055665 -0.080327 0.025839
v 0.055665 -0.019535 0.025839
v 0.055665 -0.080327 0.015839
v 0.055665 -0.019535 0.015839
vt 0.625000 0.000000
vt 0.375000 0.250000
vt 0.375000 0.000000
vt 0.625000 0.250000
vt 0.375000 0.500000
vt 0.625000 0.500000
vt 0.375000 0.750000
vt 0.625000 0.750000
vt 0.375000 1.000000
vt 0.125000 0.750000
vt 0.125000 0.500000
vt 0.875000 0.500000
vt 0.625000 1.000000
vt 0.875000 0.750000
vn -1.0000 0.0000 0.0000
vn 0.0000 0.0000 -1.0000
vn 1.0000 0.0000 0.0000
vn 0.0000 0.0000 1.0000
vn 0.0000 -1.0000 0.0000
vn 0.0000 1.0000 0.0000
usemtl White
s off
f 50/75/39 51/76/39 49/77/39
f 52/78/40 55/79/40 51/76/40
f 56/80/41 53/81/41 55/79/41
f 54/82/42 49/83/42 53/81/42
f 55/79/43 49/84/43 51/85/43
f 52/86/44 54/82/44 56/80/44
f 50/75/39 52/78/39 51/76/39
f 52/78/40 56/80/40 55/79/40
f 56/80/41 54/82/41 53/81/41
f 54/82/42 50/87/42 49/83/42
f 55/79/43 53/81/43 49/84/43
f 52/86/44 50/88/44 54/82/44
o Zero
v 0.127400 -0.080327 0.025839
v 0.127400 -0.019535 0.025839
v 0.127400 -0.080327 0.015839
v 0.127400 -0.019535 0.015839
v 0.168216 -0.080327 0.025839
v 0.168216 -0.019535 0.025839
v 0.168216 -0.080327 0.015839
v 0.168216 -0.019535 0.015839
v 0.160735 -0.028758 0.024200
v 0.160735 -0.071104 0.024200
v 0.160735 -0.028758 0.017478
v 0.160735 -0.071104 0.017478
v 0.134881 -0.028758 0.017478
v 0.134881 -0.028758 0.024200
v 0.134881 -0.071104 0.024200
v 0.134881 -0.071104 0.017478
vt 0.625000 0.000000
vt 0.375000 0.250000
vt 0.375000 0.000000
vt 0.125000 0.500000
vt 0.375000 0.500000
vt 0.375000 0.500000
vt 0.625000 0.500000
vt 0.375000 0.750000
vt 0.625000 0.500000
vt 0.125000 0.750000
vt 0.875000 0.500000
vt 0.625000 0.750000
vt 0.125000 0.750000
vt 0.625000 0.000000
vt 0.625000 0.750000
vt 0.875000 0.500000
vt 0.125000 0.500000
vt 0.375000 0.750000
vt 0.375000 0.250000
vt 0.375000 0.000000
vt 0.875000 0.750000
vt 0.625000 0.250000
vt 0.875000 0.750000
vt 0.625000 0.250000
vn -1.0000 0.0000 0.0000
vn 0.0000 0.1750 -0.9846
vn 1.0000 0.0000 0.0000
vn -0.2141 0.0000 -0.9768
vn 0.0000 -1.0000 0.0000
vn 0.0000 1.0000 0.0000
vn 0.0000 0.1750 0.9846
vn 0.2141 0.0000 0.9768
vn 0.0000 -0.1750 0.9846
vn -0.2141 0.0000 0.9768
vn 0.0000 -0.1750 -0.9846
vn 0.2141 0.0000 -0.9768
usemtl White
s off
f 58/89/45 59/90/45 57/91/45
f 59/92/46 68/93/46 63/94/46
f 64/95/47 61/96/47 63/94/47
f 63/94/48 67/97/48 64/95/48
f 63/94/49 57/98/49 59/92/49
f 60/99/50 62/100/50 64/95/50
f 61/96/51 71/101/51 57/98/51
f 57/91/52 70/102/52 58/89/52
f 65/103/49 69/104/49 67/97/49
f 71/101/50 68/93/50 72/105/50
f 66/106/45 67/97/45 68/93/45
f 72/107/47 70/102/47 71/108/47
f 58/109/53 65/103/53 62/100/53
f 62/100/54 66/106/54 61/96/54
f 64/95/55 69/104/55 60/99/55
f 60/110/56 72/107/56 59/90/56
f 58/89/45 60/110/45 59/90/45
f 59/92/46 72/105/46 68/93/46
f 64/95/47 62/100/47 61/96/47
f 63/94/48 68/93/48 67/97/48
f 63/94/49 61/96/49 57/98/49
f 60/99/50 58/109/50 62/100/50
f 61/96/51 66/106/51 71/101/51
f 57/91/52 71/108/52 70/102/52
f 65/103/49 70/111/49 69/104/49
f 71/101/50 66/106/50 68/93/50
f 66/106/45 65/103/45 67/97/45
f 72/107/47 69/112/47 70/102/47
f 58/109/53 70/111/53 65/103/53
f 62/100/54 65/103/54 66/106/54
f 64/95/55 67/97/55 69/104/55
f 60/110/56 69/112/56 72/107/56
