# Blender v2.79 (sub 0) OBJ File: 'TextInputCursor.blend'
# www.blender.org
mtllib TextInputCursor.mtl
o Cursor
v -0.009375 0.000103 0.007500
v -0.009375 0.151226 0.007500
v -0.009375 0.000103 -0.007500
v -0.009375 0.151226 -0.007500
v 0.009375 0.000103 0.007500
v 0.009375 0.151226 0.007500
v 0.009375 0.000103 -0.007500
v 0.009375 0.151226 -0.007500
v -0.002836 0.143670 0.007500
v -0.002836 0.143670 -0.007500
v 0.002836 0.143670 -0.007500
v 0.002836 0.143670 0.007500
v -0.002836 0.007281 -0.007500
v 0.002836 0.007281 -0.007500
v 0.002836 0.007281 0.007500
v -0.002836 0.007281 0.007500
v -0.024375 0.000103 -0.007500
v -0.024375 0.000103 0.007500
v -0.024375 0.143670 0.007500
v -0.024375 0.151226 0.007500
v -0.024375 0.151226 -0.007500
v -0.024375 0.007281 -0.007500
v 0.024375 0.007281 -0.007500
v 0.024375 0.000103 -0.007500
v 0.024375 0.000103 0.007500
v 0.024375 0.151226 -0.007500
v 0.024375 0.151226 0.007500
v 0.024375 0.007281 0.007500
v -0.024375 0.143670 -0.007500
v 0.024375 0.143670 -0.007500
v 0.024375 0.143670 0.007500
v -0.024375 0.007281 0.007500
vn 0.0000 0.0000 -1.0000
vn 0.0000 0.0000 1.0000
vn 0.0000 -1.0000 0.0000
vn 0.0000 1.0000 0.0000
vn 1.0000 0.0000 0.0000
vn -1.0000 0.0000 0.0000
usemtl Cursor
s off
f 11//1 8//1 26//1 30//1
f 10//1 4//1 8//1 11//1
f 7//1 14//1 23//1 24//1
f 12//2 6//2 2//2 9//2
f 3//3 7//3 5//3 1//3
f 8//4 4//4 2//4 6//4
f 15//2 12//2 9//2 16//2
f 14//5 11//5 12//5 15//5
f 13//1 10//1 11//1 14//1
f 16//6 9//6 10//6 13//6
f 4//1 10//1 29//1 21//1
f 3//1 13//1 14//1 7//1
f 10//3 9//3 19//3 29//3
f 5//2 15//2 16//2 1//2
f 19//6 20//6 21//6 29//6
f 30//5 26//5 27//5 31//5
f 18//6 32//6 22//6 17//6
f 24//5 23//5 28//5 25//5
f 5//3 7//3 24//3 25//3
f 3//3 1//3 18//3 17//3
f 6//2 12//2 31//2 27//2
f 8//4 6//4 27//4 26//4
f 1//2 16//2 32//2 18//2
f 9//2 2//2 20//2 19//2
f 15//2 5//2 25//2 28//2
f 16//4 13//4 22//4 32//4
f 2//4 4//4 21//4 20//4
f 12//3 11//3 30//3 31//3
f 13//1 3//1 17//1 22//1
f 14//4 15//4 28//4 23//4
