# Blender v2.79 (sub 0) OBJ File: 'TextInputBracket.blend'
# www.blender.org
mtllib TextInputBracket.mtl
o Cube.001_Cube.003
v 0.000034 0.007252 0.002742
v 0.000034 0.113466 0.002742
v 0.000034 0.113466 -0.002741
v 0.000034 0.007253 -0.002741
v 0.006427 0.007252 0.002742
v 0.006427 0.113466 0.002742
v 0.006427 0.000001 -0.002742
v 0.470761 0.000001 -0.002742
v 0.470761 0.000000 0.002742
v 0.006427 0.000000 0.002742
v 0.006427 0.113466 -0.002741
v 0.000034 0.000001 -0.002742
v 0.000034 0.000000 0.002742
v 0.006427 0.007253 -0.002741
v 0.470761 0.007252 0.002742
v 0.470761 0.007253 -0.002741
vn -1.0000 -0.0000 0.0000
vn 0.0000 -0.0000 1.0000
vn 0.0000 -1.0000 -0.0000
vn 0.0000 1.0000 0.0000
vn 0.0000 0.0000 -1.0000
vn 1.0000 0.0000 0.0000
usemtl Faded_Grey
s 1
f 1//1 2//1 3//1 4//1
f 5//2 6//2 2//2 1//2
f 7//3 8//3 9//3 10//3
f 11//4 3//4 2//4 6//4
f 12//3 7//3 10//3 13//3
f 4//5 3//5 11//5 14//5
f 12//5 4//5 14//5 7//5
f 9//2 15//2 5//2 10//2
f 10//2 5//2 1//2 13//2
f 8//6 16//6 15//6 9//6
f 7//5 14//5 16//5 8//5
f 13//1 1//1 4//1 12//1
f 15//4 16//4 14//4 5//4
f 11//6 6//6 5//6 14//6
