# Blender v2.80 (sub 27) OBJ File: 'toggle-component.blend'
# www.blender.org
mtllib toggle-component.mtl
o Outer
v 0.007610 -0.000001 -0.000500
v 0.007610 -0.010001 -0.000500
v 0.007610 -0.000001 0.000500
v 0.007610 -0.010001 0.000500
v 0.000014 -0.005001 -0.000500
v 0.000014 -0.005001 0.000500
vt 0.625000 0.000000
vt 0.375000 0.250000
vt 0.375000 0.000000
vt 0.375000 0.250000
vt 0.625000 0.250000
vt 0.375000 0.500000
vt 0.625000 0.750000
vt 0.375000 1.000000
vt 0.375000 0.750000
vt 0.375000 0.500000
vt 0.125000 0.750000
vt 0.125000 0.500000
vt 0.875000 0.500000
vt 0.875000 0.750000
vt 0.625000 0.250000
vt 0.625000 1.000000
vt 0.375000 0.750000
vn -0.5498 0.8353 0.0000
vn 0.0000 0.0000 1.0000
vn -0.5498 -0.8353 0.0000
vn 1.0000 0.0000 0.0000
vn 0.0000 0.0000 -1.0000
usemtl Outer
s off
f 5/1/1 3/2/1 1/3/1
f 4/4/2 3/5/2 6/6/2
f 2/7/3 6/8/3 5/9/3
f 1/10/4 4/11/4 2/12/4
f 5/13/5 1/14/5 2/7/5
f 5/1/1 6/15/1 3/2/1
f 2/7/3 4/16/3 6/8/3
f 1/10/4 3/17/4 4/11/4
o Inner
v 0.006896 -0.001411 -0.000957
v 0.006896 -0.008591 -0.000957
v 0.006896 -0.001411 0.000957
v 0.006896 -0.008591 0.000957
v 0.001442 -0.005001 -0.000957
v 0.001442 -0.005001 0.000957
vt 0.625000 0.000000
vt 0.375000 0.250000
vt 0.375000 0.000000
vt 0.375000 0.250000
vt 0.625000 0.250000
vt 0.375000 0.500000
vt 0.625000 0.750000
vt 0.375000 1.000000
vt 0.375000 0.750000
vt 0.375000 0.500000
vt 0.125000 0.750000
vt 0.125000 0.500000
vt 0.875000 0.500000
vt 0.875000 0.750000
vt 0.625000 0.250000
vt 0.625000 1.000000
vt 0.375000 0.750000
vn -0.5498 0.8353 0.0000
vn 0.0000 0.0000 1.0000
vn -0.5498 -0.8353 0.0000
vn 1.0000 0.0000 0.0000
vn 0.0000 0.0000 -1.0000
usemtl Pink
s off
f 11/18/6 9/19/6 7/20/6
f 10/21/7 9/22/7 12/23/7
f 8/24/8 12/25/8 11/26/8
f 7/27/9 10/28/9 8/29/9
f 11/30/10 7/31/10 8/24/10
f 11/18/6 12/32/6 9/19/6
f 8/24/8 10/33/8 12/25/8
f 7/27/9 9/34/9 10/28/9
