# Blender v2.80 (sub 27) OBJ File: 'toggle-component.blend'
# www.blender.org
mtllib toggle-component.mtl
o Outer
v 0.012176 -0.000002 -0.000800
v 0.012176 -0.016002 -0.000800
v 0.012176 -0.000002 0.000800
v 0.012176 -0.016002 0.000800
v 0.000022 -0.008002 -0.000800
v 0.000022 -0.008002 0.000800
v 0.011698 -0.015058 -0.000983
v 0.011698 -0.015058 0.000983
v 0.000978 -0.008002 -0.000983
v 0.000978 -0.008002 0.000983
v 0.011698 -0.000945 -0.000983
v 0.011698 -0.000945 0.000983
vt 0.625000 0.000000
vt 0.375000 0.250000
vt 0.375000 0.000000
vt 0.375000 0.250000
vt 0.398497 0.273497
vt 0.375000 0.500000
vt 0.625000 0.750000
vt 0.375000 1.000000
vt 0.375000 0.750000
vt 0.375000 0.500000
vt 0.125000 0.750000
vt 0.125000 0.500000
vt 0.875000 0.750000
vt 0.671993 0.726503
vt 0.851503 0.726503
vt 0.375000 0.940338
vt 0.625000 0.809662
vt 0.375000 0.809662
vt 0.375000 0.190338
vt 0.625000 0.059662
vt 0.375000 0.059662
vt 0.875000 0.500000
vt 0.851503 0.546993
vt 0.578007 0.273497
vt 0.625000 0.250000
vt 0.125000 0.690338
vt 0.375000 0.559662
vt 0.125000 0.559662
vt 0.625000 0.250000
vt 0.398497 0.453007
vt 0.625000 1.000000
vt 0.375000 0.750000
vt 0.625000 0.940338
vt 0.625000 0.190338
vt 0.375000 0.690338
vn -0.5498 0.8353 0.0000
vn -0.1807 -0.2746 0.9444
vn -0.5498 -0.8353 0.0000
vn 1.0000 0.0000 0.0000
vn 0.3574 0.0000 -0.9339
vn 0.5498 0.8353 0.0000
vn 0.5498 -0.8353 0.0000
vn -0.1807 -0.2746 -0.9444
vn -0.1807 0.2746 0.9444
vn -1.0000 0.0000 0.0000
vn 0.3574 0.0000 0.9339
vn -0.1807 0.2746 -0.9444
usemtl Outer
s off
f 5/1/1 3/2/1 1/3/1
f 4/4/2 8/5/2 6/6/2
f 2/7/3 6/8/3 5/9/3
f 1/10/4 4/11/4 2/12/4
f 1/13/5 7/14/5 11/15/5
f 10/16/6 7/17/6 9/18/6
f 12/19/7 9/20/7 11/21/7
f 7/14/8 5/22/8 9/23/8
f 6/6/9 12/24/9 3/25/9
f 8/26/10 11/27/10 7/28/10
f 5/1/1 6/29/1 3/2/1
f 4/4/11 3/25/11 12/24/11
f 8/5/2 10/30/2 6/6/2
f 4/4/11 12/24/11 8/5/11
f 2/7/3 4/31/3 6/8/3
f 1/10/4 3/32/4 4/11/4
f 9/23/12 5/22/12 1/13/12
f 1/13/5 2/7/5 7/14/5
f 11/15/12 9/23/12 1/13/12
f 10/16/6 8/33/6 7/17/6
f 12/19/7 10/34/7 9/20/7
f 7/14/8 2/7/8 5/22/8
f 6/6/9 10/30/9 12/24/9
f 8/26/10 12/35/10 11/27/10
o Inner
v 0.011034 -0.002257 -0.000284
v 0.011034 -0.013746 -0.000284
v 0.011034 -0.002257 0.000284
v 0.011034 -0.013746 0.000284
v 0.002307 -0.008002 -0.000284
v 0.002307 -0.008002 0.000284
vt 0.625000 0.000000
vt 0.375000 0.250000
vt 0.375000 0.000000
vt 0.375000 0.250000
vt 0.625000 0.250000
vt 0.375000 0.500000
vt 0.625000 0.750000
vt 0.375000 1.000000
vt 0.375000 0.750000
vt 0.375000 0.500000
vt 0.125000 0.750000
vt 0.125000 0.500000
vt 0.875000 0.500000
vt 0.875000 0.750000
vt 0.625000 0.250000
vt 0.625000 1.000000
vt 0.375000 0.750000
vn -0.5498 0.8353 0.0000
vn 0.0000 0.0000 1.0000
vn -0.5498 -0.8353 0.0000
vn 1.0000 0.0000 0.0000
vn 0.0000 0.0000 -1.0000
usemtl Pink
s off
f 17/36/13 15/37/13 13/38/13
f 16/39/14 15/40/14 18/41/14
f 14/42/15 18/43/15 17/44/15
f 13/45/16 16/46/16 14/47/16
f 17/48/17 13/49/17 14/42/17
f 17/36/13 18/50/13 15/37/13
f 14/42/15 16/51/15 18/43/15
f 13/45/16 15/52/16 16/46/16
