# Blender v2.80 (sub 27) OBJ File: 'toggle-component.blend'
# www.blender.org
mtllib toggle-component.mtl
o Outer
v 0.076100 -0.000010 -0.005000
v 0.076100 -0.100010 -0.005000
v 0.076100 -0.000010 0.005000
v 0.076100 -0.100010 0.005000
v 0.000139 -0.050010 -0.005000
v 0.000139 -0.050010 0.005000
vt 0.375000 0.000000
vt 0.625000 0.000000
vt 0.625000 0.250000
vt 0.375000 0.250000
vt 0.375000 0.250000
vt 0.625000 0.250000
vt 0.375000 0.500000
vt 0.375000 0.750000
vt 0.625000 0.750000
vt 0.625000 1.000000
vt 0.375000 1.000000
vt 0.125000 0.500000
vt 0.375000 0.500000
vt 0.375000 0.750000
vt 0.125000 0.750000
vt 0.875000 0.500000
vt 0.875000 0.750000
vn -0.5498 0.8353 0.0000
vn 0.0000 0.0000 1.0000
vn -0.5498 -0.8353 0.0000
vn 1.0000 0.0000 0.0000
vn 0.0000 0.0000 -1.0000
usemtl Outer
s off
f 1/1/1 5/2/1 6/3/1 3/4/1
f 4/5/2 3/6/2 6/7/2
f 5/8/3 2/9/3 4/10/3 6/11/3
f 2/12/4 1/13/4 3/14/4 4/15/4
f 5/16/5 1/17/5 2/9/5
o Inner
v 0.068961 -0.014108 -0.009566
v 0.068961 -0.085912 -0.009566
v 0.068961 -0.014108 0.009566
v 0.068961 -0.085912 0.009566
v 0.014418 -0.050010 -0.009566
v 0.014418 -0.050010 0.009566
vt 0.375000 0.000000
vt 0.625000 0.000000
vt 0.625000 0.250000
vt 0.375000 0.250000
vt 0.375000 0.250000
vt 0.625000 0.250000
vt 0.375000 0.500000
vt 0.375000 0.750000
vt 0.625000 0.750000
vt 0.625000 1.000000
vt 0.375000 1.000000
vt 0.125000 0.500000
vt 0.375000 0.500000
vt 0.375000 0.750000
vt 0.125000 0.750000
vt 0.875000 0.500000
vt 0.875000 0.750000
vn -0.5498 0.8353 0.0000
vn 0.0000 0.0000 1.0000
vn -0.5498 -0.8353 0.0000
vn 1.0000 0.0000 0.0000
vn 0.0000 0.0000 -1.0000
usemtl Pink
s off
f 7/18/6 11/19/6 12/20/6 9/21/6
f 10/22/7 9/23/7 12/24/7
f 11/25/8 8/26/8 10/27/8 12/28/8
f 8/29/9 7/30/9 9/31/9 10/32/9
f 11/33/10 7/34/10 8/26/10
