# Blender v2.80 (sub 27) OBJ File: 'wait-component.blend'
# www.blender.org
mtllib wait-component.mtl
o Processing
v 0.005207 -0.000007 -0.000160
v 0.004185 -0.000127 -0.000160
v 0.003206 -0.000444 -0.000160
v 0.002307 -0.000946 -0.000160
v 0.001524 -0.001613 -0.000160
v 0.000886 -0.002421 -0.000160
v 0.000418 -0.003337 -0.000160
v 0.000137 -0.004328 -0.000160
v 0.000055 -0.005354 -0.000160
v 0.000175 -0.006376 -0.000160
v 0.000492 -0.007355 -0.000160
v 0.000994 -0.008253 -0.000160
v 0.001661 -0.009037 -0.000160
v 0.002469 -0.009675 -0.000160
v 0.003385 -0.010143 -0.000160
v 0.004376 -0.010423 -0.000160
v 0.005402 -0.010505 -0.000160
v 0.006424 -0.010386 -0.000160
v 0.007403 -0.010069 -0.000160
v 0.008301 -0.009567 -0.000160
v 0.009085 -0.008899 -0.000160
v 0.009723 -0.008092 -0.000160
v 0.010191 -0.007175 -0.000160
v 0.010472 -0.006185 -0.000160
v 0.010553 -0.005159 -0.000160
v 0.010434 -0.004137 -0.000160
v 0.010117 -0.003158 -0.000160
v 0.009615 -0.002259 -0.000160
v 0.008947 -0.001476 -0.000160
v 0.008140 -0.000838 -0.000160
v 0.007223 -0.000369 -0.000160
v 0.006233 -0.000089 -0.000160
v 0.005218 -0.000595 -0.000160
v 0.004310 -0.000701 -0.000160
v 0.003441 -0.000983 -0.000160
v 0.002643 -0.001428 -0.000160
v 0.001947 -0.002021 -0.000160
v 0.001380 -0.002738 -0.000160
v 0.000964 -0.003552 -0.000160
v 0.000715 -0.004432 -0.000160
v 0.000643 -0.005343 -0.000160
v 0.000749 -0.006250 -0.000160
v 0.001031 -0.007120 -0.000160
v 0.001476 -0.007918 -0.000160
v 0.002069 -0.008614 -0.000160
v 0.002786 -0.009180 -0.000160
v 0.003600 -0.009596 -0.000160
v 0.004480 -0.009845 -0.000160
v 0.005391 -0.009918 -0.000160
v 0.006298 -0.009811 -0.000160
v 0.007168 -0.009530 -0.000160
v 0.007966 -0.009084 -0.000160
v 0.008662 -0.008491 -0.000160
v 0.009228 -0.007774 -0.000160
v 0.009644 -0.006960 -0.000160
v 0.009893 -0.006081 -0.000160
v 0.009966 -0.005170 -0.000160
v 0.009859 -0.004262 -0.000160
v 0.009578 -0.003393 -0.000160
v 0.009132 -0.002595 -0.000160
v 0.008539 -0.001899 -0.000160
v 0.007822 -0.001332 -0.000160
v 0.007008 -0.000916 -0.000160
v 0.006129 -0.000667 -0.000160
v 0.005207 -0.000007 -0.000028
v 0.004185 -0.000127 -0.000028
v 0.003206 -0.000444 -0.000028
v 0.002307 -0.000946 -0.000028
v 0.001524 -0.001613 -0.000028
v 0.000886 -0.002421 -0.000028
v 0.000418 -0.003337 -0.000028
v 0.000137 -0.004328 -0.000028
v 0.000055 -0.005354 -0.000028
v 0.000175 -0.006376 -0.000028
v 0.000492 -0.007355 -0.000028
v 0.000994 -0.008253 -0.000028
v 0.001661 -0.009037 -0.000028
v 0.002469 -0.009675 -0.000028
v 0.003385 -0.010143 -0.000028
v 0.004376 -0.010423 -0.000028
v 0.005402 -0.010505 -0.000028
v 0.006424 -0.010386 -0.000028
v 0.007403 -0.010069 -0.000028
v 0.008301 -0.009567 -0.000028
v 0.009085 -0.008899 -0.000028
v 0.009723 -0.008092 -0.000028
v 0.010191 -0.007175 -0.000028
v 0.010472 -0.006185 -0.000028
v 0.010553 -0.005159 -0.000028
v 0.010434 -0.004137 -0.000028
v 0.010117 -0.003158 -0.000028
v 0.009615 -0.002259 -0.000028
v 0.008947 -0.001476 -0.000028
v 0.008140 -0.000838 -0.000028
v 0.007223 -0.000369 -0.000028
v 0.006233 -0.000089 -0.000028
v 0.005218 -0.000595 -0.000028
v 0.004310 -0.000701 -0.000028
v 0.003441 -0.000983 -0.000028
v 0.002643 -0.001428 -0.000028
v 0.001947 -0.002021 -0.000028
v 0.001380 -0.002738 -0.000028
v 0.000964 -0.003552 -0.000028
v 0.000715 -0.004432 -0.000028
v 0.000643 -0.005343 -0.000028
v 0.000749 -0.006250 -0.000028
v 0.001031 -0.007120 -0.000028
v 0.001476 -0.007918 -0.000028
v 0.002069 -0.008614 -0.000028
v 0.002786 -0.009180 -0.000028
v 0.003600 -0.009596 -0.000028
v 0.004480 -0.009845 -0.000028
v 0.005391 -0.009918 -0.000028
v 0.006298 -0.009811 -0.000028
v 0.007168 -0.009530 -0.000028
v 0.007966 -0.009084 -0.000028
v 0.008662 -0.008491 -0.000028
v 0.009228 -0.007774 -0.000028
v 0.009644 -0.006960 -0.000028
v 0.009893 -0.006081 -0.000028
v 0.009966 -0.005170 -0.000028
v 0.009859 -0.004262 -0.000028
v 0.009578 -0.003393 -0.000028
v 0.009132 -0.002595 -0.000028
v 0.008539 -0.001899 -0.000028
v 0.007822 -0.001332 -0.000028
v 0.007008 -0.000916 -0.000028
v 0.006129 -0.000667 -0.000028
v 0.005626 -0.005578 -0.000013
v 0.005542 -0.001054 -0.000013
v 0.005626 -0.005578 -0.000158
v 0.005542 -0.001054 -0.000158
v 0.005049 -0.005589 -0.000013
v 0.004965 -0.001065 -0.000013
v 0.005049 -0.005589 -0.000158
v 0.004965 -0.001065 -0.000158
v 0.004924 -0.005386 -0.000013
v 0.008934 -0.007482 -0.000013
v 0.004924 -0.005386 -0.000158
v 0.008934 -0.007482 -0.000158
v 0.005191 -0.004875 -0.000013
v 0.009201 -0.006970 -0.000013
v 0.005191 -0.004875 -0.000158
v 0.009201 -0.006970 -0.000158
vn -0.0000 0.0000 -1.0000
vn 0.0000 -0.0000 1.0000
vn -0.1164 0.9932 0.0000
vn -0.3080 0.9514 0.0000
vn -0.4877 0.8730 0.0000
vn -0.6486 0.7611 0.0000
vn -0.7846 0.6200 0.0000
vn -0.8905 0.4550 0.0000
vn -0.9622 0.2725 0.0000
vn -0.9968 0.0796 0.0000
vn -0.9932 -0.1164 0.0000
vn -0.9514 -0.3080 0.0000
vn -0.8730 -0.4877 0.0000
vn -0.7611 -0.6486 0.0000
vn -0.6200 -0.7846 0.0000
vn -0.4550 -0.8905 0.0000
vn -0.2725 -0.9622 0.0000
vn -0.0796 -0.9968 0.0000
vn 0.1164 -0.9932 0.0000
vn 0.3080 -0.9514 0.0000
vn 0.4877 -0.8730 0.0000
vn 0.6486 -0.7611 0.0000
vn 0.7846 -0.6200 0.0000
vn 0.8905 -0.4550 0.0000
vn 0.9622 -0.2725 0.0000
vn 0.9968 -0.0796 0.0000
vn 0.9932 0.1164 0.0000
vn 0.9514 0.3080 0.0000
vn 0.8730 0.4877 0.0000
vn 0.7611 0.6486 0.0000
vn 0.6200 0.7846 0.0000
vn 0.4550 0.8905 0.0000
vn 0.2725 0.9622 0.0000
vn 0.0796 0.9968 0.0000
vn -0.9998 -0.0185 0.0000
vn 0.9998 0.0185 0.0000
vn -0.0185 0.9998 0.0000
vn 0.0185 -0.9998 0.0000
vn 0.4632 0.8863 0.0000
vn -0.4632 -0.8863 0.0000
vn 0.8863 -0.4632 0.0000
vn -0.8863 0.4632 0.0000
usemtl Pink
s off
f 6//1 39//1 7//1
f 21//1 52//1 53//1
f 7//1 40//1 8//1
f 21//1 54//1 22//1
f 8//1 41//1 9//1
f 22//1 55//1 23//1
f 9//1 42//1 10//1
f 23//1 56//1 24//1
f 10//1 43//1 11//1
f 25//1 56//1 57//1
f 11//1 44//1 12//1
f 26//1 57//1 58//1
f 13//1 44//1 45//1
f 26//1 59//1 27//1
f 13//1 46//1 14//1
f 28//1 59//1 60//1
f 15//1 46//1 47//1
f 2//1 33//1 34//1
f 28//1 61//1 29//1
f 16//1 47//1 48//1
f 3//1 34//1 35//1
f 30//1 61//1 62//1
f 16//1 49//1 17//1
f 3//1 36//1 4//1
f 30//1 63//1 31//1
f 17//1 50//1 18//1
f 5//1 36//1 37//1
f 32//1 63//1 64//1
f 18//1 51//1 19//1
f 5//1 38//1 6//1
f 32//1 33//1 1//1
f 19//1 52//1 20//1
f 103//2 70//2 71//2
f 85//2 116//2 84//2
f 104//2 71//2 72//2
f 118//2 85//2 86//2
f 105//2 72//2 73//2
f 119//2 86//2 87//2
f 106//2 73//2 74//2
f 88//2 119//2 87//2
f 107//2 74//2 75//2
f 89//2 120//2 88//2
f 108//2 75//2 76//2
f 90//2 121//2 89//2
f 77//2 108//2 76//2
f 123//2 90//2 91//2
f 110//2 77//2 78//2
f 92//2 123//2 91//2
f 111//2 78//2 79//2
f 66//2 97//2 65//2
f 125//2 92//2 93//2
f 80//2 111//2 79//2
f 99//2 66//2 67//2
f 94//2 125//2 93//2
f 113//2 80//2 81//2
f 100//2 67//2 68//2
f 127//2 94//2 95//2
f 114//2 81//2 82//2
f 69//2 100//2 68//2
f 96//2 127//2 95//2
f 115//2 82//2 83//2
f 102//2 69//2 70//2
f 97//2 96//2 65//2
f 116//2 83//2 84//2
f 2//3 65//3 1//3
f 3//4 66//4 2//4
f 4//5 67//5 3//5
f 5//6 68//6 4//6
f 6//7 69//7 5//7
f 7//8 70//8 6//8
f 8//9 71//9 7//9
f 9//10 72//10 8//10
f 10//11 73//11 9//11
f 11//12 74//12 10//12
f 12//13 75//13 11//13
f 13//14 76//14 12//14
f 13//15 78//15 77//15
f 15//16 78//16 14//16
f 16//17 79//17 15//17
f 17//18 80//18 16//18
f 18//19 81//19 17//19
f 19//20 82//20 18//20
f 20//21 83//21 19//21
f 21//22 84//22 20//22
f 22//23 85//23 21//23
f 23//24 86//24 22//24
f 24//25 87//25 23//25
f 25//26 88//26 24//26
f 26//27 89//27 25//27
f 27//28 90//28 26//28
f 28//29 91//29 27//29
f 29//30 92//30 28//30
f 30//31 93//31 29//31
f 31//32 94//32 30//32
f 32//33 95//33 31//33
f 1//34 96//34 32//34
f 34//19 97//19 98//19
f 34//20 99//20 35//20
f 35//21 100//21 36//21
f 36//22 101//22 37//22
f 37//23 102//23 38//23
f 38//24 103//24 39//24
f 39//25 104//25 40//25
f 40//26 105//26 41//26
f 41//27 106//27 42//27
f 42//28 107//28 43//28
f 43//29 108//29 44//29
f 44//30 109//30 45//30
f 45//31 110//31 46//31
f 46//32 111//32 47//32
f 47//33 112//33 48//33
f 48//34 113//34 49//34
f 49//3 114//3 50//3
f 50//4 115//4 51//4
f 51//5 116//5 52//5
f 52//6 117//6 53//6
f 53//7 118//7 54//7
f 54//8 119//8 55//8
f 55//9 120//9 56//9
f 57//10 120//10 121//10
f 57//11 122//11 58//11
f 58//12 123//12 59//12
f 59//13 124//13 60//13
f 60//14 125//14 61//14
f 61//15 126//15 62//15
f 62//16 127//16 63//16
f 63//17 128//17 64//17
f 64//18 97//18 33//18
f 130//35 131//35 129//35
f 131//2 136//2 135//2
f 136//36 133//36 135//36
f 133//1 130//1 129//1
f 135//37 129//37 131//37
f 132//38 134//38 136//38
f 138//39 139//39 137//39
f 140//2 143//2 139//2
f 144//40 141//40 143//40
f 142//1 137//1 141//1
f 143//41 137//41 139//41
f 140//42 142//42 144//42
f 6//1 38//1 39//1
f 21//1 20//1 52//1
f 7//1 39//1 40//1
f 21//1 53//1 54//1
f 8//1 40//1 41//1
f 22//1 54//1 55//1
f 9//1 41//1 42//1
f 23//1 55//1 56//1
f 10//1 42//1 43//1
f 25//1 24//1 56//1
f 11//1 43//1 44//1
f 26//1 25//1 57//1
f 13//1 12//1 44//1
f 26//1 58//1 59//1
f 13//1 45//1 46//1
f 28//1 27//1 59//1
f 15//1 14//1 46//1
f 2//1 1//1 33//1
f 28//1 60//1 61//1
f 16//1 15//1 47//1
f 3//1 2//1 34//1
f 30//1 29//1 61//1
f 16//1 48//1 49//1
f 3//1 35//1 36//1
f 30//1 62//1 63//1
f 17//1 49//1 50//1
f 5//1 4//1 36//1
f 32//1 31//1 63//1
f 18//1 50//1 51//1
f 5//1 37//1 38//1
f 32//1 64//1 33//1
f 19//1 51//1 52//1
f 103//2 102//2 70//2
f 85//2 117//2 116//2
f 104//2 103//2 71//2
f 118//2 117//2 85//2
f 105//2 104//2 72//2
f 119//2 118//2 86//2
f 106//2 105//2 73//2
f 88//2 120//2 119//2
f 107//2 106//2 74//2
f 89//2 121//2 120//2
f 108//2 107//2 75//2
f 90//2 122//2 121//2
f 77//2 109//2 108//2
f 123//2 122//2 90//2
f 110//2 109//2 77//2
f 92//2 124//2 123//2
f 111//2 110//2 78//2
f 66//2 98//2 97//2
f 125//2 124//2 92//2
f 80//2 112//2 111//2
f 99//2 98//2 66//2
f 94//2 126//2 125//2
f 113//2 112//2 80//2
f 100//2 99//2 67//2
f 127//2 126//2 94//2
f 114//2 113//2 81//2
f 69//2 101//2 100//2
f 96//2 128//2 127//2
f 115//2 114//2 82//2
f 102//2 101//2 69//2
f 97//2 128//2 96//2
f 116//2 115//2 83//2
f 2//3 66//3 65//3
f 3//4 67//4 66//4
f 4//5 68//5 67//5
f 5//6 69//6 68//6
f 6//7 70//7 69//7
f 7//8 71//8 70//8
f 8//9 72//9 71//9
f 9//10 73//10 72//10
f 10//11 74//11 73//11
f 11//12 75//12 74//12
f 12//13 76//13 75//13
f 13//14 77//14 76//14
f 13//15 14//15 78//15
f 15//16 79//16 78//16
f 16//17 80//17 79//17
f 17//18 81//18 80//18
f 18//19 82//19 81//19
f 19//20 83//20 82//20
f 20//21 84//21 83//21
f 21//22 85//22 84//22
f 22//23 86//23 85//23
f 23//24 87//24 86//24
f 24//25 88//25 87//25
f 25//26 89//26 88//26
f 26//27 90//27 89//27
f 27//28 91//28 90//28
f 28//29 92//29 91//29
f 29//30 93//30 92//30
f 30//31 94//31 93//31
f 31//32 95//32 94//32
f 32//33 96//33 95//33
f 1//34 65//34 96//34
f 34//19 33//19 97//19
f 34//20 98//20 99//20
f 35//21 99//21 100//21
f 36//22 100//22 101//22
f 37//23 101//23 102//23
f 38//24 102//24 103//24
f 39//25 103//25 104//25
f 40//26 104//26 105//26
f 41//27 105//27 106//27
f 42//28 106//28 107//28
f 43//29 107//29 108//29
f 44//30 108//30 109//30
f 45//31 109//31 110//31
f 46//32 110//32 111//32
f 47//33 111//33 112//33
f 48//34 112//34 113//34
f 49//3 113//3 114//3
f 50//4 114//4 115//4
f 51//5 115//5 116//5
f 52//6 116//6 117//6
f 53//7 117//7 118//7
f 54//8 118//8 119//8
f 55//9 119//9 120//9
f 57//10 56//10 120//10
f 57//11 121//11 122//11
f 58//12 122//12 123//12
f 59//13 123//13 124//13
f 60//14 124//14 125//14
f 61//15 125//15 126//15
f 62//16 126//16 127//16
f 63//17 127//17 128//17
f 64//18 128//18 97//18
f 130//35 132//35 131//35
f 131//2 132//2 136//2
f 136//36 134//36 133//36
f 133//1 134//1 130//1
f 135//37 133//37 129//37
f 132//38 130//38 134//38
f 138//39 140//39 139//39
f 140//2 144//2 143//2
f 144//40 142//40 141//40
f 142//1 138//1 137//1
f 143//41 141//41 137//41
f 140//42 138//42 142//42
o Succeeded
v 0.005832 -0.008753 0.000446
v 0.000077 -0.001620 0.000446
v 0.005832 -0.008753 -0.000609
v 0.000077 -0.001620 -0.000609
v 0.009605 -0.005770 0.000446
v 0.008688 -0.004646 -0.000609
v 0.007905 -0.007084 -0.000609
v 0.001258 -0.000676 -0.000609
v 0.007905 -0.007084 0.000446
v 0.001258 -0.000676 0.000446
v 0.004915 -0.007629 0.000446
v 0.004915 -0.007629 -0.000609
v 0.008688 -0.004646 0.000446
v 0.009605 -0.005770 -0.000609
v 0.006097 -0.006686 0.000446
v 0.006097 -0.006686 -0.000609
vn -0.7789 -0.6272 0.0000
vn 0.0000 -0.0000 -1.0000
vn 0.0000 0.0000 1.0000
vn 0.6116 -0.7912 0.0000
vn -0.6237 0.7816 0.0000
vn 0.6272 -0.7789 0.0000
vn 0.7749 0.6321 0.0000
vn 0.7789 0.6272 0.0000
vn -0.6186 0.7857 0.0000
vn -0.7749 -0.6321 0.0000
usemtl Pink
s off
f 146//43 156//43 155//43
f 151//44 150//44 158//44
f 154//45 155//45 159//45
f 151//46 149//46 153//46
f 148//47 154//47 152//47
f 151//48 145//48 147//48
f 158//49 157//49 149//49
f 156//44 152//44 160//44
f 147//44 160//44 151//44
f 154//50 160//50 152//50
f 159//45 145//45 153//45
f 153//45 157//45 159//45
f 159//51 150//51 160//51
f 155//52 147//52 145//52
f 146//43 148//43 156//43
f 151//44 160//44 150//44
f 154//45 146//45 155//45
f 151//46 158//46 149//46
f 148//47 146//47 154//47
f 151//48 153//48 145//48
f 158//49 150//49 157//49
f 156//44 148//44 152//44
f 147//44 156//44 160//44
f 154//50 159//50 160//50
f 159//45 155//45 145//45
f 153//45 149//45 157//45
f 159//51 157//51 150//51
f 155//52 156//52 147//52
o Failed
v 0.000038 -0.009352 0.000427
v 0.000038 -0.000064 0.000427
v 0.000038 -0.009352 -0.000016
v 0.000038 -0.000064 -0.000016
v 0.009325 -0.009352 0.000427
v 0.009325 -0.000064 0.000427
v 0.009325 -0.009352 -0.000016
v 0.009325 -0.000064 -0.000016
v 0.007831 -0.009352 -0.000016
v 0.007831 -0.009352 0.000427
v 0.009325 -0.007972 -0.000016
v 0.009325 -0.007972 0.000427
v 0.004624 -0.006145 -0.000016
v 0.004624 -0.006145 0.000427
v 0.001417 -0.009352 -0.000016
v 0.001417 -0.009352 0.000427
v 0.000038 -0.007972 -0.000016
v 0.000038 -0.007972 0.000427
v 0.006119 -0.004766 -0.000016
v 0.006119 -0.004766 0.000427
v 0.003245 -0.004766 -0.000016
v 0.003245 -0.004766 0.000427
v 0.009325 -0.001559 -0.000016
v 0.009325 -0.001559 0.000427
v 0.007831 -0.000064 -0.000016
v 0.007831 -0.000064 0.000427
v 0.004624 -0.003271 -0.000016
v 0.004624 -0.003271 0.000427
v 0.001417 -0.000064 -0.000016
v 0.001417 -0.000064 0.000427
v 0.000038 -0.001559 -0.000016
v 0.000038 -0.001559 0.000427
vn -1.0000 0.0000 0.0000
vn 0.0000 -0.0000 -1.0000
vn 1.0000 0.0000 0.0000
vn -0.0000 -0.0000 1.0000
vn 0.0000 -1.0000 0.0000
vn 0.0000 1.0000 0.0000
vn 0.7071 -0.7071 0.0000
vn -0.7071 -0.7071 0.0000
vn 0.7071 0.7071 0.0000
vn -0.7071 0.7071 0.0000
usemtl Blue
s off
f 178//53 163//53 161//53
f 181//54 168//54 179//54
f 171//55 165//55 167//55
f 180//56 162//56 182//56
f 175//57 161//57 163//57
f 185//58 166//58 168//58
f 179//59 184//59 180//59
f 183//55 166//55 184//55
f 189//58 162//58 190//58
f 182//60 191//60 181//60
f 180//61 171//61 179//61
f 188//62 185//62 187//62
f 174//59 175//59 173//59
f 181//62 178//62 182//62
f 192//53 164//53 191//53
f 173//60 170//60 174//60
f 187//61 190//61 188//61
f 169//57 165//57 170//57
f 178//53 177//53 163//53
f 175//54 163//54 177//54
f 181//54 191//54 164//54
f 175//54 177//54 181//54
f 167//54 169//54 173//54
f 173//54 175//54 181//54
f 181//54 164//54 189//54
f 187//54 185//54 168//54
f 181//54 189//54 187//54
f 167//54 173//54 181//54
f 179//54 171//54 167//54
f 168//54 183//54 179//54
f 181//54 187//54 168//54
f 179//54 167//54 181//54
f 171//55 172//55 165//55
f 170//56 165//56 172//56
f 180//56 184//56 166//56
f 170//56 172//56 180//56
f 161//56 176//56 174//56
f 174//56 170//56 180//56
f 180//56 166//56 186//56
f 188//56 190//56 162//56
f 180//56 186//56 188//56
f 161//56 174//56 180//56
f 182//56 178//56 161//56
f 162//56 192//56 182//56
f 180//56 188//56 162//56
f 182//56 161//56 180//56
f 175//57 176//57 161//57
f 185//58 186//58 166//58
f 179//59 183//59 184//59
f 183//55 168//55 166//55
f 189//58 164//58 162//58
f 182//60 192//60 191//60
f 180//61 172//61 171//61
f 188//62 186//62 185//62
f 174//59 176//59 175//59
f 181//62 177//62 178//62
f 192//53 162//53 164//53
f 173//60 169//60 170//60
f 187//61 189//61 190//61
f 169//57 167//57 165//57
